<svg width="26" height="83" viewBox="0 0 26 83" fill="none" xmlns="http://www.w3.org/2000/svg">
<path d="M25.1429 76.5606V71.4416C25.1429 69.894 24.6668 68.7035 23.1191 67.9892L0.857229 58.2273V65.1321C0.857229 65.1321 3.83342 66.3225 4.5477 66.5606C4.5477 67.2749 4.5477 74.0606 4.5477 75.013C3.71437 75.2511 0.976274 75.8463 0.976274 75.8463V82.0368L25.1429 76.5606ZM9.5477 68.4654C10.9763 69.0606 16.3334 71.0844 16.3334 71.0844C16.2144 71.0844 17.762 71.6797 18.5953 71.9178L16.4525 72.394C16.4525 72.394 10.6191 73.7035 9.42866 73.9416L9.42866 68.4654H9.5477Z" fill="#FAFAFA"/>
<path d="M8.83333 58.7032C3.83333 58.7032 0.5 54.1794 0.5 47.1556C0.5 44.1794 1.09524 41.3223 1.80952 39.7747L7.28572 40.727L6.92857 41.5604C5.97619 43.7032 5.61905 45.1318 5.61905 47.7508C5.61905 49.6556 6.33333 51.6794 8 51.6794C9.07143 51.6794 9.78572 50.8461 10.9762 48.227C12.1667 45.727 14.0714 42.3937 17.5238 42.3937C22.2857 42.3937 25.5 47.0366 25.5 53.5842C25.5 56.0842 25.0238 58.227 24.4286 59.5366L19.1905 58.5842L19.6667 58.108C20.1429 56.9175 20.619 55.3699 20.619 53.108C20.5 50.608 19.4286 49.4175 18.4762 49.4175C17.4048 49.4175 16.5714 50.8461 15.5 53.108C13.7143 56.9175 11.6905 58.7032 8.83333 58.7032Z" fill="#FAFAFA"/>
<path d="M24.9044 0.607178L25.3806 0.726225V10.9643C25.3806 12.3929 24.9044 13.4643 23.3568 13.8215L12.6425 16.0834C18.3568 13.8215 22.9997 8.58337 24.9044 0.607178Z" fill="#FAFAFA" fill-opacity="0.7"/>
<path d="M25.1429 30.4884L0.976248 20.1312V13.1074L21.2143 7.15503C18.4762 11.4407 14.1905 15.0122 11.2143 16.3217L8.71434 17.036L25.262 23.4646V30.4884H25.1429Z" fill="#FAFAFA"/>
<path d="M25.262 33.227V39.7746L0.976248 35.6079V29.0603L25.262 33.227Z" fill="#FAFAFA"/>
</svg>
