<svg width="30" height="25" viewBox="0 0 30 25" fill="none" xmlns="http://www.w3.org/2000/svg">
<path d="M18.7 0.523682C18.2 0.923682 17.6 1.22368 17 1.42368C16.4 1.62368 15.7 1.72368 15 1.72368C14.3 1.72368 13.6 1.62368 13 1.42368C12.4 1.22368 11.8 0.923682 11.3 0.523682C10.6 0.0236818 9.6 0.123681 9.1 0.823681C8.6 1.52368 8.7 2.52368 9.4 3.02368C10.2 3.62368 11 4.02368 12 4.42368C13 4.82368 14 4.92368 15 4.92368C16 4.92368 17 4.72368 18 4.42368C18.9 4.12368 19.8 3.62368 20.6 3.02368C21.3 2.52368 21.4 1.52368 20.9 0.823681C20.4 0.123681 19.4 0.0236818 18.7 0.523682Z" fill="#FAFAFA"/>
<path d="M21.6 6.02368C19.7 7.22368 17.4 7.92368 15 7.92368C12.6 7.92368 10.3 7.22368 8.4 6.02368C7.7 5.52368 6.7 5.82368 6.2 6.52368C5.7 7.32368 6 8.22368 6.7 8.72368C9.1 10.2237 11.9 11.1237 15 11.1237C18 11.1237 20.9 10.2237 23.3 8.72368C24 8.22368 24.3 7.22368 23.8 6.52368C23.3 5.82368 22.4 5.52368 21.6 6.02368Z" fill="#FAFAFA"/>
<path d="M24.6 11.8237C21.8 13.5237 18.5 14.4237 15 14.4237C11.5 14.4237 8.2 13.4237 5.4 11.8237C4.6 11.4237 3.7 11.6237 3.2 12.4237C2.8 13.2237 3 14.1237 3.8 14.6237C7.1 16.6237 10.9 17.7237 15 17.7237C19.1 17.7237 22.9 16.6237 26.2 14.6237C27 14.2237 27.2 13.2237 26.8 12.4237C26.3 11.6237 25.4 11.4237 24.6 11.8237Z" fill="#FAFAFA"/>
<path d="M27.6 17.6236C23.9 19.7236 19.6 21.0236 15 21.0236C10.4 21.0236 6.1 19.8236 2.4 17.6236C1.6 17.2236 0.700001 17.4236 0.200001 18.2236C-0.199999 19.0236 0 19.9236 0.799999 20.4236C5 22.8236 9.8 24.2236 15 24.2236C20.2 24.2236 25 22.8236 29.2 20.4236C30 20.0236 30.2 19.0236 29.8 18.2236C29.4 17.4236 28.4 17.2236 27.6 17.6236Z" fill="#FAFAFA"/>
</svg>
